<svg id="Layer_1" data-name="Layer 1" xmlns="http://www.w3.org/2000/svg" viewBox="0 0 100 100"><defs><style>.cls-1{fill:none;}.cls-2{fill:#1572b6;}</style></defs><title>logo-css3</title><rect class="cls-1" width="100" height="100"/><path class="cls-2" d="M27,24.881l4.187,47,18.785,5.238L68.81,71.862,73,24.881ZM64.3,35.649,62.909,51.306l0,.085-.006.194h0l-.99,10.947-.109.973L50,66.77h0l-.009.008L38.2,63.494l-.8-9.051h5.78l.41,4.6L50,60.781l0,0h0l6.43-1.761.679-7.5H43.668l-.115-1.267-.263-2.968L43.152,45.7H57.62l.527-5.829H36.11L35.995,38.6l-.263-2.969-.138-1.594H64.44Z"/></svg>