<svg id="Layer_1" data-name="Layer 1" xmlns="http://www.w3.org/2000/svg" viewBox="0 0 100 100"><defs><style>.cls-1{fill:none;}.cls-2{fill:#f34f29;}</style></defs><title>logo-git</title><rect class="cls-1" x="0.005" width="100" height="100"/><path class="cls-2" d="M76.945,48.924,52.5,24.48a3.607,3.607,0,0,0-5.1,0l-5.075,5.076,6.439,6.439a4.282,4.282,0,0,1,5.422,5.459l6.206,6.206a4.285,4.285,0,1,1-2.57,2.419l-5.787-5.788V59.522a4.272,4.272,0,1,1-5.07.811,4.566,4.566,0,0,1,1.267-.936V44.025a4.526,4.526,0,0,1-1.267-.936,4.268,4.268,0,0,1-.855-4.691L39.8,32.05,23.052,48.811a3.606,3.606,0,0,0,.009,5.1L47.51,78.355a3.609,3.609,0,0,0,5.1,0l24.331-24.33a3.608,3.608,0,0,0,0-5.1Z"/></svg>