<svg id="Layer_1" data-name="Layer 1" xmlns="http://www.w3.org/2000/svg" viewBox="0 0 100 100"><defs><style>.cls-1{fill:none;}.cls-2,.cls-3{fill:#181616;}.cls-2{fill-rule:evenodd;}</style></defs><title>logo-github</title><rect class="cls-1" width="100" height="100"/><path class="cls-2" d="M50,23.667a27,27,0,0,0-8.536,52.62c1.349.251,1.844-.586,1.844-1.3,0-.644-.025-2.77-.036-5.027-7.512,1.634-9.1-3.185-9.1-3.185-1.228-3.121-3-3.951-3-3.951-2.451-1.675.184-1.641.184-1.641A5.675,5.675,0,0,1,35.5,63.967c2.408,4.126,6.316,2.934,7.857,2.244A5.753,5.753,0,0,1,45.072,62.6c-6-.681-12.3-3-12.3-13.343a10.451,10.451,0,0,1,2.782-7.247,9.7,9.7,0,0,1,.261-7.145s2.267-.726,7.426,2.768a25.588,25.588,0,0,1,13.523,0c5.153-3.493,7.418-2.768,7.418-2.768a9.7,9.7,0,0,1,.265,7.145,10.431,10.431,0,0,1,2.778,7.248c0,10.37-6.316,12.653-12.328,13.321a6.454,6.454,0,0,1,1.832,5c0,3.613-.031,6.521-.031,7.41,0,.718.486,1.56,1.854,1.3A27,27,0,0,0,50,23.667Z"/><path class="cls-3" d="M33.226,62.432c-.059.134-.27.175-.463.083s-.306-.271-.242-.405.269-.177.465-.084.308.273.24.407Zm1.094,1.22c-.129.12-.38.064-.551-.125s-.21-.439-.079-.56.377-.063.554.125.211.44.076.561Zm1.065,1.555c-.166.115-.437.008-.6-.233s-.165-.528.005-.643.433-.012.6.226.165.532,0,.65Zm1.458,1.5c-.148.163-.463.119-.694-.1a.52.52,0,0,1-.153-.69c.15-.164.467-.118.7.1s.307.528.149.69Zm2.012.872c-.066.211-.369.308-.675.217s-.506-.34-.443-.553.368-.313.676-.217S38.918,67.367,38.855,67.582Zm2.21.161c.007.223-.252.407-.572.412s-.585-.173-.588-.392.254-.407.576-.413.584.173.584.393Zm2.056-.349c.038.217-.185.44-.5.5s-.6-.077-.644-.292.189-.446.5-.5.6.076.646.3Z"/></svg>