<svg id="Layer_1" data-name="Layer 1" xmlns="http://www.w3.org/2000/svg" viewBox="0 0 100 100"><defs><style>.cls-1{fill:none;}.cls-2{fill:#fff;}.cls-3{fill:#e33629;}.cls-4{fill:#f8bd00;}.cls-5{fill:#587dbd;}.cls-6{fill:#319f43;}</style></defs><title>logo-google</title><rect class="cls-1" width="100" height="100"/><g id="original"><path class="cls-2" d="M41.542,23.958a27.563,27.563,0,0,0,1.887,52.661,29.437,29.437,0,0,0,14.1.152,24.283,24.283,0,0,0,18.25-17.3,32.375,32.375,0,0,0,.7-14.626H50.55V55.6H65.565a12.948,12.948,0,0,1-5.515,8.5,15.733,15.733,0,0,1-6.067,2.4,18,18,0,0,1-6.578,0,16.189,16.189,0,0,1-6.12-2.67,17.117,17.117,0,0,1-6.315-8.459,16.685,16.685,0,0,1,0-10.728,17.094,17.094,0,0,1,4-6.5,16.19,16.19,0,0,1,16.313-4.259,14.926,14.926,0,0,1,5.941,3.484q2.539-2.526,5.07-5.066c.871-.91,1.821-1.777,2.679-2.709A26.671,26.671,0,0,0,60.1,24.123,27.877,27.877,0,0,0,41.542,23.958Z"/><path class="cls-3" d="M41.542,23.958a27.877,27.877,0,0,1,18.56.161,26.662,26.662,0,0,1,8.864,5.5c-.871.932-1.79,1.8-2.678,2.709q-2.535,2.53-5.066,5.044a14.926,14.926,0,0,0-5.941-3.484,16.189,16.189,0,0,0-16.317,4.242,17.1,17.1,0,0,0-4,6.494L25.936,37.63A27.673,27.673,0,0,1,41.542,23.958Z"/><path class="cls-4" d="M23.54,44.556a27.419,27.419,0,0,1,2.4-6.926l9.029,7.009a16.685,16.685,0,0,0,0,10.728q-4.512,3.485-9.029,7A27.586,27.586,0,0,1,23.54,44.556Z"/><path class="cls-5" d="M50.55,44.839H76.476a32.379,32.379,0,0,1-.7,14.627A25.009,25.009,0,0,1,68.805,70.9c-2.914-2.274-5.841-4.53-8.755-6.8a12.949,12.949,0,0,0,5.515-8.511H50.55Q50.544,50.219,50.55,44.839Z"/><path class="cls-6" d="M25.931,62.371q4.518-3.485,9.03-7a17.115,17.115,0,0,0,6.324,8.459,16.171,16.171,0,0,0,6.133,2.648,17.958,17.958,0,0,0,6.578,0,15.747,15.747,0,0,0,6.067-2.4c2.914,2.273,5.841,4.53,8.755,6.8A24.886,24.886,0,0,1,57.537,76.75,29.449,29.449,0,0,1,43.442,76.6a27.45,27.45,0,0,1-10.019-5.048A27.774,27.774,0,0,1,25.931,62.371Z"/></g></svg>