<svg xmlns="http://www.w3.org/2000/svg" viewBox="0 0 235.36 53.22"><g data-name="Layer 2"><path d="M23.41 0h17.7a1.43 1.43 0 011.46 1.41v46.15a5.75 5.75 0 01-5.84 5.66H1.46A1.44 1.44 0 010 51.8V34.06h20.49a2.87 2.87 0 002.92-2.83z" fill="#009fdc"/><path d="M0 5.66A5.75 5.75 0 015.84 0h13.58v28.65A1.44 1.44 0 0118 30.07H0z" fill="#f3a500"/><path fill="#5e7992" d="M68.12 4.68h4.77v43.79h-4.77z"/><path d="M101.74 4.68H97v29.47c0 8.69-2.88 10.93-7.93 10.93a13.14 13.14 0 01-4.43-.74l-.69 3.91a16.32 16.32 0 005.46.92c7 0 12.36-3.4 12.36-14.62zM144.5 43.3a21.65 21.65 0 01-8.8 1.78c-10.23 0-16.43-6.78-16.43-18.27 0-12.07 6.78-18.74 16.72-18.74a19.13 19.13 0 018.28 1.78l1.26-4c-1.38-.69-4.42-1.78-9.65-1.78-12.82 0-21.61 8.79-21.61 22.93 0 14.83 9.08 22.13 20.34 22.13a26.82 26.82 0 0010.92-2zm21.03-12.81l4.37-13.16c.8-2.76 1.61-5.52 2.18-8.17h.18c.57 2.59 1.32 5.35 2.24 8.34l4.31 13zm9.54-25.81h-5.52l-14.48 43.8H160l4.59-14.2h15.23l4.72 14.2h5.05zm31.38 4.08a35.07 35.07 0 016.44-.57c11.38 0 17.47 6.15 17.47 17.53C230.36 38.25 223.87 45 212 45a39.44 39.44 0 01-5.58-.29zm-4.77 39.6a76.48 76.48 0 009.48.46c8 0 14.37-2.18 18.22-6.15 4.14-4.31 6-10.23 6-17.18 0-10.75-5.06-21.15-22.64-21.15a69.18 69.18 0 00-11 .92z" fill="#5e7992" fill-rule="evenodd"/></g></svg>