<svg id="Layer_1" data-name="Layer 1" xmlns="http://www.w3.org/2000/svg" viewBox="0 0 100 100"><defs><style>.cls-1{fill:none;}.cls-2{fill:#f0db4f;}.cls-3{fill:#323330;}</style></defs><title>logo-javascript</title><rect class="cls-1" width="100" height="100"/><path class="cls-2" d="M25,25H75V75H25Z"/><path class="cls-3" d="M70.908,63.075c-.366-2.281-1.854-4.2-6.26-5.984-1.53-.7-3.236-1.207-3.745-2.367a2.584,2.584,0,0,1-.09-1.463c.328-1.326,1.911-1.74,3.165-1.36a3.484,3.484,0,0,1,2.034,1.887c2.158-1.4,2.154-1.388,3.66-2.348a9.346,9.346,0,0,0-1.207-1.616c-1.3-1.449-3.066-2.2-5.893-2.138l-1.474.19a6.689,6.689,0,0,0-3.545,2.091,6.545,6.545,0,0,0,1.188,9.32c2.838,2.13,7.006,2.614,7.538,4.606.518,2.438-1.792,3.227-4.087,2.947a5.361,5.361,0,0,1-3.651-2.776c-1.872,1.084-1.872,1.084-3.8,2.191a8.451,8.451,0,0,0,1.7,2.315c3.622,3.673,12.686,3.493,14.311-2.068A6.871,6.871,0,0,0,70.908,63.075ZM52.182,47.98H47.505l-.019,12.091c0,2.571.133,4.929-.285,5.651-.685,1.421-2.458,1.245-3.266.97A4.02,4.02,0,0,1,42.21,64.9a2.419,2.419,0,0,0-.266-.428l-3.8,2.329A7.52,7.52,0,0,0,40.9,69.957a9.082,9.082,0,0,0,6.683.822,5.9,5.9,0,0,0,3.773-2.956c1.065-1.963.837-4.339.827-6.967C52.205,56.568,52.182,52.281,52.182,47.98Z"/></svg>