<svg id="Layer_1" data-name="Layer 1" xmlns="http://www.w3.org/2000/svg" viewBox="0 0 100 100"><defs><style>.cls-1{fill:none;}.cls-2{fill:#00618a;}</style></defs><title>logo-mysql</title><rect class="cls-1" width="100" height="100"/><path class="cls-2" d="M75.741,67.436a19.094,19.094,0,0,0-8.063,1.138c-.619.261-1.607.268-1.708,1.044.34.356.393.889.664,1.328a10.479,10.479,0,0,0,2.182,2.561c.856.646,1.739,1.337,2.656,1.9,1.633,1,3.455,1.563,5.027,2.561.927.588,1.847,1.328,2.751,1.991.447.328.747.838,1.328,1.044v-.094c-.305-.389-.384-.923-.664-1.329L78.68,78.344a20.19,20.19,0,0,0-4.363-4.174c-1.3-.931-4.2-2.189-4.743-3.7l-.094-.095a20.89,20.89,0,0,0,2.846-.664c1.426-.382,2.7-.284,4.173-.664l1.992-.569V68.1c-.744-.764-1.275-1.775-2.087-2.467a61.013,61.013,0,0,0-6.829-5.122c-1.324-.835-2.96-1.378-4.364-2.087-.472-.238-1.3-.362-1.613-.759a20.079,20.079,0,0,1-1.707-3.225c-1.19-2.293-2.359-4.8-3.414-7.21a38.925,38.925,0,0,0-2.087-4.742c-4.308-7.082-8.943-11.356-16.125-15.557a19.364,19.364,0,0,0-5.313-1.708l-3.13-.19a16.405,16.405,0,0,1-1.9-1.423c-2.379-1.5-8.482-4.772-10.244-.474-1.113,2.713,1.663,5.36,2.655,6.735A20.317,20.317,0,0,1,24.423,33c.328.713.384,1.428.665,2.182a50,50,0,0,0,2.181,5.6,19.751,19.751,0,0,0,1.518,2.561c.349.477.948.687,1.043,1.423-.586.82-.619,2.093-.948,3.131-1.483,4.674-.923,10.485,1.233,13.944.661,1.063,2.22,3.34,4.363,2.466,1.875-.763,1.456-3.129,1.992-5.217.121-.473.047-.821.285-1.138v.095l1.708,3.414a23.221,23.221,0,0,0,5.407,5.6c.985.744,1.761,2.031,3.035,2.466v-.095H46.81c-.247-.385-.633-.544-.948-.853a21.7,21.7,0,0,1-2.182-2.467,57.729,57.729,0,0,1-4.648-7.588c-.665-1.277-1.243-2.685-1.8-3.984-.216-.5-.213-1.259-.663-1.518a18.893,18.893,0,0,0-1.992,2.846,24.358,24.358,0,0,0-1.138,6.26c-.166.06-.092.019-.19.1-1.322-.319-1.785-1.678-2.277-2.846a17.937,17.937,0,0,1-.379-11.1c.282-.879,1.56-3.646,1.043-4.459-.247-.81-1.062-1.278-1.517-1.9A14.926,14.926,0,0,1,28.6,39.262c-1.016-2.3-1.491-4.883-2.561-7.209a21.025,21.025,0,0,0-2.087-3.225A18.828,18.828,0,0,1,21.673,25.6c-.217-.47-.511-1.224-.19-1.707a.751.751,0,0,1,.569-.569c.55-.425,2.082.141,2.655.378a23.135,23.135,0,0,1,4.08,2.088c.618.41,1.244,1.2,1.992,1.423h.853c1.336.307,2.832.095,4.08.474a24.651,24.651,0,0,1,5.975,2.846,36.995,36.995,0,0,1,13,14.229c.492.944.7,1.844,1.138,2.846.874,2.019,1.975,4.1,2.845,6.071a28.384,28.384,0,0,0,2.941,5.6c.645.861,3.136,1.323,4.269,1.8a25.119,25.119,0,0,1,2.846,1.138c1.435.866,2.827,1.9,4.174,2.846C73.568,65.538,75.638,66.579,75.741,67.436ZM33.34,31.3a6.71,6.71,0,0,0-1.708.189v.094h.095a12.963,12.963,0,0,0,1.327,1.708q.474,1,.949,1.992l.095-.094a2.316,2.316,0,0,0,.853-2.087c-.236-.248-.27-.558-.474-.853C34.206,31.85,33.682,31.626,33.34,31.3Z"/></svg>