<svg id="Layer_1" data-name="Layer 1" xmlns="http://www.w3.org/2000/svg" viewBox="0 0 100 100"><defs><style>.cls-1{fill:none;}.cls-2{fill:#6181b6;}</style></defs><title>logo-php</title><rect class="cls-1" width="100" height="100"/><path class="cls-2" d="M50,32.868c-19.881,0-36,8.168-36,18.244S30.119,69.356,50,69.356s36-8.168,36-18.244S69.881,32.868,50,32.868Zm-9.367,21.8a7.049,7.049,0,0,1-2.864,1.478,14.123,14.123,0,0,1-4.014.271H30.071L29.05,62.308h-4.3l3.839-20.035H36.86c2.489,0,4.3.716,5.445,2.023s1.485,3.16,1.03,5.5a8.662,8.662,0,0,1-2.7,4.869ZM53.19,56.415l1.7-8.5a2.523,2.523,0,0,0-.213-2.095,2.967,2.967,0,0,0-2.142-.6H49.121l-2.2,11.2H42.654L46.493,36.97h4.269l-1.021,5.3h3.8c2.393,0,4.043.48,4.951,1.315s1.18,1.977.817,3.847l-1.786,8.98Zm23.723-6.586a8.577,8.577,0,0,1-2.7,4.837,7.043,7.043,0,0,1-2.864,1.478,14.12,14.12,0,0,1-4.014.271H63.65l-1.021,5.893h-4.3l3.838-20.035h8.274c2.489,0,4.3.716,5.445,2.023S77.368,47.488,76.913,49.829Zm-8.1-4.609H65.862l-1.607,8.249h2.617c1.734,0,3.027-.171,3.875-.825a4.988,4.988,0,0,0,1.72-3.194c.285-1.468.155-2.613-.389-3.216A4.364,4.364,0,0,0,68.808,45.22Zm-33.578,0H32.282l-1.607,8.249h2.617c1.734,0,3.027-.171,3.876-.825a4.987,4.987,0,0,0,1.719-3.194c.285-1.468.155-2.613-.389-3.216A4.36,4.36,0,0,0,35.23,45.22Z"/></svg>