<svg id="Layer_1" data-name="Layer 1" xmlns="http://www.w3.org/2000/svg" viewBox="0 0 100 100"><defs><style>.cls-1{fill:none;}.cls-2{fill:#2c8ebb;}</style></defs><title>logo-yarn</title><rect class="cls-1" width="100" height="100"/><g id="original"><path class="cls-2" d="M65.346,57.277A9.787,9.787,0,0,0,60.4,59.145c-2.613,1.616-3.92,1.511-3.92,1.511l-.043-.074c-.179-.292.836-2.909-.3-6.027-1.228-3.41-3.179-4.233-3.022-4.494a16.224,16.224,0,0,0,3-6.254c.4-2.02.291-5.347-.606-7.089-.165-.323-1.646.54-1.646.54A21.007,21.007,0,0,0,52.1,33.922c-1.25-.8-2.613,3.314-2.613,3.314a6.1,6.1,0,0,0-5.1,1.96,4.19,4.19,0,0,1-1.676.988c-.179.061-.4.052-.937,1.511C40.942,43.9,43.18,46.4,43.18,46.4a12.051,12.051,0,0,0-3.658,4.233,10.8,10.8,0,0,0-.762,5.086s-1.9,1.646-2.02,3.345a5.6,5.6,0,0,0,.77,3.41.847.847,0,0,0,1.124.407l.022-.011s-1.263,1.472-.083,2.1c1.076.561,2.887.871,3.845-.083.7-.7.836-2.252,1.093-2.887.061-.148.27.248.471.435a4.36,4.36,0,0,0,.592.436,1.821,1.821,0,0,0-1,2.4c.231.553,1.054.906,2.4.9a69.562,69.562,0,0,0,7.455-.666,1.884,1.884,0,0,0,1.137-.636,27.461,27.461,0,0,0,6.746-3.048,12.123,12.123,0,0,1,4.576-2.108A1.245,1.245,0,0,0,65.346,57.277Z"/><path class="cls-2" d="M50,23A27,27,0,1,0,77,50,27,27,0,0,0,50,23ZM66.244,61.249a10.809,10.809,0,0,0-4.1,1.9,29.194,29.194,0,0,1-6.776,3.127,3.8,3.8,0,0,1-1.586.771,68.713,68.713,0,0,1-7.8.71h-.1a4.273,4.273,0,0,1-3.261-1.106,5.472,5.472,0,0,1-4.791-.3,2.419,2.419,0,0,1-1.306-1.7,2.6,2.6,0,0,1,0-.9,2.832,2.832,0,0,1-.344-.436,7.128,7.128,0,0,1-.984-4.381,6.84,6.84,0,0,1,1.981-3.845,12.438,12.438,0,0,1,.9-5.091,11.688,11.688,0,0,1,2.97-3.919,5.828,5.828,0,0,1-.74-4.974c.509-1.354.927-2.107,1.846-2.43h0a2.965,2.965,0,0,0,1.093-.583,7.684,7.684,0,0,1,5.165-2.465c.083-.209.179-.435.283-.636a4.515,4.515,0,0,1,2.3-2.613,2.125,2.125,0,0,1,1.916.218c.283.187.645.436,1.7,2.613a2.05,2.05,0,0,1,1.242-.044,1.66,1.66,0,0,1,1.04.845c1.076,2.064,1.22,5.744.749,8.109a14.712,14.712,0,0,1-2.543,5.8,11.21,11.21,0,0,1,2.513,4.107,11.074,11.074,0,0,1,.614,4.533,12.614,12.614,0,0,0,1.359-.757,11.329,11.329,0,0,1,5.744-2.095,2.883,2.883,0,0,1,3.048,2.482A2.766,2.766,0,0,1,66.244,61.249Z"/></g></svg>